# xmcd
# 
# Track frame offsets:
#     150
#     24070
#     44085
#     63590
#     86030
#     104215
#     118013
#     132543
#     144732
#     165535
#     188478
# 
# Disc length: 2695
# 
# Revision: 0
# Processed by: cddbd v1.5.2PL0 Copyright (c) Steve Scherf et al.
# Submitted via: BonkEnc v1.0.8
# 
DISCID=a00a850b
DTITLE=Silverchair - Frogstomp
DYEAR=0
DGENRE=
TTITLE0=Israel's Son
TTITLE1=Tomorrow
TTITLE2=Faultline
TTITLE3=Pure Massacre
TTITLE4=Shade
TTITLE5=Leave Me Out
TTITLE6=Suicidal Dreams
TTITLE7=Madman
TTITLE8=Undecided
TTITLE9=Cicada
TTITLE10=Findaway
EXTD=
EXTT0=
EXTT1=
EXTT2=
EXTT3=
EXTT4=
EXTT5=
EXTT6=
EXTT7=
EXTT8=
EXTT9=
EXTT10=
PLAYORDER=
